# xmcd CD database file
#
# Track frame offsets:
#	150
#	21091
#	41316
#	52960
#	70340
#	85578
#	95204
#	108898
#	128067
#	162055
#
# Disc length: 2322 seconds
#
# Revision: 0
# Processed by: cddbd v1.5.2PL0 Copyright (c) Steve Scherf et al.
# Submitted via: CDex 1.77
#
DISCID=7309100a
DTITLE=Benny Greb - Grebfruit 2
DYEAR=2017
DGENRE=Jazz
TTITLE0=Strings
TTITLE1=Jesus He Knows Me
TTITLE2=Mrs Thomas
TTITLE3=Grebchestra
TTITLE4=Mixed Greens
TTITLE5=Tricky
TTITLE6=Happy Funeral
TTITLE7=Couscous
TTITLE8=I'm Tweeked /Attack of the 20 Lb. Pizza
TTITLE9=Blackbird
EXTD=YEAR: 2017
EXTT0=
EXTT1=
EXTT2=
EXTT3=
EXTT4=
EXTT5=
EXTT6=
EXTT7=
EXTT8=
EXTT9=
PLAYORDER=
